<svg width="91" height="18" viewBox="0 0 91 18" fill="none" xmlns="http://www.w3.org/2000/svg">
<path d="M0.946767 10.232C1.20498 8.74006 1.75727 7.41313 2.60364 6.25117C3.45001 5.07486 4.51155 4.16394 5.78827 3.51841C7.065 2.85853 8.46365 2.52859 9.98425 2.52859C11.8922 2.52859 13.3841 2.98764 14.46 3.90573C15.5502 4.82382 16.1096 6.07903 16.1383 7.67135H11.5981C11.4403 7.26968 11.1677 6.96126 10.7804 6.74608C10.3931 6.5309 9.90535 6.42331 9.31719 6.42331C8.26999 6.42331 7.37342 6.7676 6.62747 7.45617C5.89586 8.14474 5.42964 9.07 5.22881 10.232C5.15708 10.6623 5.12122 11.021 5.12122 11.3079C5.12122 12.269 5.39378 13.0006 5.9389 13.5027C6.48402 13.9904 7.28735 14.2343 8.34889 14.2343C9.82645 14.2343 11.0028 13.5672 11.8778 12.2331H7.63881L8.17675 9.19911H16.0523L15.3207 13.2875C14.5747 14.5642 13.506 15.6616 12.1145 16.5797C10.723 17.4978 9.11636 17.9569 7.29452 17.9569C5.94607 17.9569 4.78411 17.7058 3.80864 17.2037C2.83316 16.6873 2.08721 15.97 1.57078 15.052C1.05436 14.1339 0.796143 13.0723 0.796143 11.8673C0.796143 11.2935 0.846351 10.7484 0.946767 10.232Z" fill="#F7FAFC"/>
<path d="M22.375 7.9726C22.9631 7.26968 23.6302 6.71022 24.3761 6.29421C25.1221 5.8782 25.8824 5.67019 26.657 5.67019L25.8824 10.1674H24.6989C23.8095 10.1674 23.1138 10.3324 22.6117 10.6623C22.1096 10.9923 21.7725 11.5661 21.6003 12.3837L20.632 17.8493H16.393L18.5448 5.77778H22.7623L22.375 7.9726Z" fill="#F7FAFC"/>
<path d="M31.6333 17.9999C30.5861 17.9999 29.6537 17.7919 28.836 17.3759C28.0327 16.9599 27.4087 16.3717 26.964 15.6114C26.5193 14.8511 26.2969 13.9617 26.2969 12.9432C26.2969 11.5661 26.6197 10.318 27.2652 9.19911C27.9251 8.08018 28.8289 7.20513 29.9765 6.57394C31.1241 5.94275 32.408 5.62715 33.8282 5.62715C34.8754 5.62715 35.8006 5.83516 36.604 6.25117C37.4216 6.66718 38.0528 7.26251 38.4975 8.03715C38.9566 8.79744 39.1861 9.68685 39.1861 10.7054C39.1861 12.0968 38.8562 13.352 38.1963 14.471C37.5364 15.5756 36.6326 16.4434 35.485 17.0746C34.3374 17.6915 33.0535 17.9999 31.6333 17.9999ZM32.2789 14.3634C32.781 14.3634 33.2257 14.2056 33.613 13.89C34.0146 13.5744 34.3159 13.1656 34.5167 12.6635C34.7319 12.1614 34.8395 11.645 34.8395 11.1142C34.8395 10.5117 34.6817 10.0527 34.3661 9.73706C34.0649 9.42146 33.6704 9.26366 33.1826 9.26366C32.6662 9.26366 32.2143 9.42146 31.827 9.73706C31.454 10.0527 31.16 10.4615 30.9448 10.9636C30.7439 11.4657 30.6435 11.9893 30.6435 12.5344C30.6435 13.1369 30.7941 13.5959 31.0954 13.9115C31.3966 14.2128 31.7911 14.3634 32.2789 14.3634Z" fill="#F7FAFC"/>
<path d="M59.6655 5.77778L54.4582 17.8493H49.7458L49.3585 10.5332L46.3245 17.8493H41.5905L40.6653 5.77778H44.8828L44.8182 13.7824L48.0244 5.77778H52.5216L52.9519 13.8254L55.7277 5.77778H59.6655Z" fill="#F7FAFC"/>
<path d="M68.3536 10.0598L72.8294 17.8493H67.7296L64.1362 11.1787L62.9742 17.8493H58.7352L61.4249 2.67921H65.6424L64.4804 9.24215L70.3548 2.67921H75.2178L68.3536 10.0598Z" fill="#F7FAFC"/>
<path d="M78.8239 4.65885C78.164 4.65885 77.6404 4.49388 77.2531 4.16394C76.8801 3.834 76.6936 3.41082 76.6936 2.89439C76.6936 2.43535 76.8156 2.01216 77.0595 1.62484C77.3177 1.22318 77.662 0.907582 78.0923 0.678059C78.537 0.43419 79.0319 0.312256 79.577 0.312256C80.2369 0.312256 80.7533 0.484399 81.1263 0.828684C81.5136 1.15862 81.7073 1.58898 81.7073 2.11975C81.7073 2.5788 81.5782 3.00198 81.32 3.3893C81.0761 3.77662 80.7318 4.08505 80.2871 4.31457C79.8424 4.54409 79.3547 4.65885 78.8239 4.65885ZM80.7175 5.77778L78.5872 17.8493H74.3482L76.5 5.77778H80.7175Z" fill="#F7FAFC"/>
<path d="M86.6697 13.3305C86.6553 13.4023 86.6482 13.4883 86.6482 13.5887C86.6482 13.8183 86.7127 13.9904 86.8418 14.1052C86.9853 14.2056 87.2148 14.2558 87.5304 14.2558H88.7569L88.1114 17.8493H86.2608C83.6357 17.8493 82.3231 16.7447 82.3231 14.5355C82.3231 14.1626 82.3661 13.7394 82.4522 13.266L83.1623 9.28518H81.6775L82.3016 5.77778H83.7863L84.3027 2.85136H88.5417L88.0253 5.77778H90.1986L89.5746 9.28518H87.4013L86.6697 13.3305Z" fill="#F7FAFC"/>
</svg>
